<svg width="20" height="20" fill="none" xmlns="http://www.w3.org/2000/svg"><path d="M16.1 8.333H3.908A2.239 2.239 0 0 1 1.675 6.1V3.908a2.239 2.239 0 0 1 2.233-2.233H16.1a2.239 2.239 0 0 1 2.233 2.233V6.1A2.244 2.244 0 0 1 16.1 8.333ZM16.1 18.333H3.908A2.239 2.239 0 0 1 1.675 16.1v-2.192a2.239 2.239 0 0 1 2.233-2.233H16.1a2.239 2.239 0 0 1 2.233 2.233V16.1a2.244 2.244 0 0 1-2.233 2.233ZM5 4.167v1.666M8.333 4.167v1.666M5 14.167v1.666M8.333 14.167v1.666M11.667 5H15M11.667 15H15" stroke="#65717C" stroke-width="1.5" stroke-linecap="round" stroke-linejoin="round"></path></svg>