<svg width="20" height="20" fill="none" xmlns="http://www.w3.org/2000/svg"><path d="M14.167 8.333h1.666c1.667 0 2.5-.833 2.5-2.5V4.167c0-1.667-.833-2.5-2.5-2.5h-1.666c-1.667 0-2.5.833-2.5 2.5v1.666c0 1.667.833 2.5 2.5 2.5ZM4.167 18.333h1.666c1.667 0 2.5-.833 2.5-2.5v-1.666c0-1.667-.833-2.5-2.5-2.5H4.167c-1.667 0-2.5.833-2.5 2.5v1.666c0 1.667.833 2.5 2.5 2.5ZM5 8.333a3.333 3.333 0 1 0 0-6.666 3.333 3.333 0 0 0 0 6.666ZM15 18.333a3.333 3.333 0 1 0 0-6.666 3.333 3.333 0 0 0 0 6.666Z" stroke="#65717C" stroke-width="1.5" stroke-miterlimit="10" stroke-linecap="round" stroke-linejoin="round"></path></svg>