<svg width="20" height="20" fill="none" xmlns="http://www.w3.org/2000/svg"><path d="m18.058 11.917-.333 4.166c-.125 1.275-.225 2.25-2.483 2.25H4.758c-2.258 0-2.358-.975-2.483-2.25l-.333-4.166a2.526 2.526 0 0 1 .541-1.825l.017-.017a2.479 2.479 0 0 1 1.925-.908h11.15c.775 0 1.458.35 1.908.891.009.009.017.017.017.025.408.492.633 1.134.558 1.834Z" stroke="#65717C" stroke-width="1.5" stroke-miterlimit="10"></path><path d="M2.917 9.525V5.233c0-2.833.708-3.541 3.541-3.541h1.059c1.058 0 1.3.316 1.7.85l1.058 1.416c.267.35.425.567 1.133.567h2.125c2.834 0 3.542.708 3.542 3.542v1.491M7.858 14.167h4.284" stroke="#65717C" stroke-width="1.5" stroke-miterlimit="10" stroke-linecap="round" stroke-linejoin="round"></path></svg>