<svg width="20" height="20" fill="none" xmlns="http://www.w3.org/2000/svg"><path d="m10.55 2.098-.025.059-2.417 5.608H5.733c-.566 0-1.108.117-1.6.325l1.459-3.483.033-.084.058-.133c.017-.05.034-.1.059-.142 1.091-2.525 2.325-3.1 4.808-2.15Z" stroke="#65717C" stroke-width="1.5" stroke-linecap="round" stroke-linejoin="round"></path><path d="M15.042 7.932a3.967 3.967 0 0 0-1.175-.167H8.108l2.417-5.608.025-.059c.125.042.242.1.367.15l1.841.775c1.025.425 1.742.867 2.175 1.4.084.1.15.192.209.3.075.117.133.234.166.359.034.075.059.15.075.216.225.7.092 1.559-.341 2.634Z" stroke="#65717C" stroke-width="1.5" stroke-linecap="round" stroke-linejoin="round"></path><path d="M17.935 11.832v1.625c0 .167-.008.333-.017.5-.158 2.908-1.783 4.375-4.866 4.375h-6.5c-.2 0-.4-.017-.592-.042-2.65-.175-4.067-1.591-4.242-4.241a4.597 4.597 0 0 1-.042-.592v-1.625A4.078 4.078 0 0 1 4.143 8.09a4.127 4.127 0 0 1 1.6-.325h8.133c.409 0 .809.059 1.176.167a4.086 4.086 0 0 1 2.883 3.9Z" stroke="#65717C" stroke-width="1.5" stroke-linecap="round" stroke-linejoin="round"></path><path d="M5.592 4.607 4.133 8.09a4.078 4.078 0 0 0-2.466 3.742V9.39a4.874 4.874 0 0 1 3.925-4.783ZM17.932 9.39v2.441A4.066 4.066 0 0 0 15.05 7.94c.433-1.084.558-1.934.35-2.642a.946.946 0 0 0-.075-.217 4.853 4.853 0 0 1 2.608 4.309Z" stroke="#65717C" stroke-width="1.5" stroke-linecap="round" stroke-linejoin="round"></path></svg>