<svg width="20" height="20" fill="none" xmlns="http://www.w3.org/2000/svg"><path d="M5 3.333A8.336 8.336 0 0 1 18.333 10c0 4.6-3.733 8.333-8.333 8.333A8.336 8.336 0 0 1 1.667 10c0-1.508.4-2.925 1.108-4.15L10 10" stroke="#65717C" stroke-width="1.5" stroke-miterlimit="10" stroke-linecap="round" stroke-linejoin="round"></path><path d="M5.692 7.467A4.934 4.934 0 0 0 5 10c0 2.758 2.242 5 5 5s5-2.242 5-5-2.242-5-5-5c-.758 0-1.483.167-2.125.475" stroke="#65717C" stroke-width="1.5" stroke-miterlimit="10" stroke-linecap="round" stroke-linejoin="round"></path></svg>